<?xml version="1.0" encoding="UTF-8" standalone="no"?>
<!DOCTYPE svg PUBLIC "-//W3C//DTD SVG 1.1//EN" "http://www.w3.org/Graphics/SVG/1.1/DTD/svg11.dtd">
<svg width="100%" height="100%" viewBox="0 0 24 24" version="1.1" xmlns="http://www.w3.org/2000/svg" xmlns:xlink="http://www.w3.org/1999/xlink" xml:space="preserve" xmlns:serif="http://www.serif.com/" style="fill-rule:evenodd;clip-rule:evenodd;stroke-linejoin:round;stroke-miterlimit:2;">
    <path d="M2,2L22,2L22,22L2,22L2,2ZM3,3L21,3L21,21L3,21L3,3ZM5,5L12,5L12,19L5,19L5,5ZM6,6L11,6L11,18L6,18L6,6ZM14,9L19,9L19,19L14,19L14,9ZM15,10L18,10L18,18L15,18L15,10Z" style="fill:currentColor;fill-rule:nonzero;"/>
</svg>
